<svg width="64" height="64" viewBox="0 0 64 64" fill="none" xmlns="http://www.w3.org/2000/svg">
<path d="M58.9561 51.485C58.1457 52.7541 57.1977 53.9536 56.1248 55.0673C55.2507 55.9753 54.2429 56.7802 53.1271 57.4613C52.1259 58.0613 51.0313 58.5353 49.8762 58.8688C47.5979 59.5726 43.6131 59.9245 37.9217 59.9245H32.5291C27.8126 59.9245 24.9658 59.7841 23.9888 59.5034C23.4515 59.3408 22.9658 59.0714 22.5707 58.7167C22.1756 58.362 21.8821 57.932 21.7138 57.4613C21.3385 56.4748 21.1509 54.8788 21.1509 52.6733V12.4631C21.1509 8.56929 21.4218 6.15224 21.9636 5.21195C22.29 4.69375 22.7006 4.21877 23.1827 3.80152C23.7704 3.32566 24.4609 2.95513 25.2145 2.71125C26.2762 2.36368 27.3822 2.12741 28.5088 2.00748C30.1656 1.82544 31.835 1.74256 33.505 1.75943V0H0V1.75943H2.83122C5.60027 1.75943 7.6876 2.46416 9.09322 3.87363C10.1236 4.90621 10.6387 7.39441 10.6387 11.3382V52.6733C10.6387 56.2883 10.259 58.6121 9.49959 59.6447C8.08953 61.3753 5.86896 62.2406 2.83789 62.2406H0V64H57.2507L63.5793 46.6076L61.7906 46.3192C60.9636 48.0878 60.0171 49.8127 58.9561 51.485Z" fill="black"/>
<path d="M23.4825 7.04925H25.481C27.4795 7.04925 29.0017 7.55593 30.0476 8.56928C30.7493 9.27882 31.1001 11.07 31.1001 13.9428V43.6973C31.1001 46.299 30.827 47.9719 30.2808 48.716C29.3015 49.9736 27.7016 50.6014 25.481 50.5995H23.4825V51.8686H46.2588V50.5995H44.2104C42.2119 50.5995 40.7085 50.1101 39.7004 49.1314C38.9609 48.4526 38.5901 46.6441 38.5879 43.706V30.3199C41.5323 30.8798 44.5337 31.1851 47.5479 31.2313C49.9154 31.2658 52.2722 30.9488 54.516 30.2939C56.4177 29.7393 58.1696 28.8562 59.6655 27.698C61.0679 26.5852 62.168 25.2169 62.8864 23.6917C63.6443 22.0656 64.0225 20.3255 63.999 18.5721C64.0115 17.2503 63.7544 15.937 63.2395 14.6927C62.7451 13.5091 62.0478 12.3968 61.1711 11.393C60.2958 10.3952 59.2489 9.51972 58.0667 8.79714C56.8882 8.07645 55.5973 7.50445 54.2329 7.09828C51.4217 6.22145 47.6745 5.78207 42.9913 5.78015H23.4825V7.04925ZM38.5879 9.17787C40.2761 8.81903 42.0032 8.61504 43.7407 8.56928C45.2629 8.55647 46.7737 8.79736 48.1907 9.27882C49.5396 9.74192 50.7575 10.4512 51.7614 11.3584C52.8142 12.3221 53.6311 13.4601 54.1629 14.7042C54.7742 16.1482 55.0724 17.6775 55.0423 19.2153C55.0577 20.5642 54.789 21.9042 54.2495 23.1697C53.7685 24.3217 53.0331 25.3817 52.0845 26.2905C51.1831 27.1373 50.0991 27.8232 48.8935 28.3095C47.6846 28.8 46.3648 29.0512 45.0298 29.045C44.1092 29.0358 43.1903 28.9761 42.2785 28.8662C41.2237 28.7489 39.9935 28.571 38.5879 28.3326V9.17787Z" fill="black"/>
</svg>
