<svg width="48" height="48" viewBox="0 0 48 48" fill="none" xmlns="http://www.w3.org/2000/svg">
<path d="M44.217 38.6137C43.6093 39.5656 42.8982 40.4652 42.0936 41.3005C41.438 41.9815 40.6822 42.5851 39.8453 43.0959C39.0944 43.546 38.2735 43.9014 37.4071 44.1516C35.6984 44.6794 32.7098 44.9433 28.4413 44.9433H24.3968C20.8595 44.9433 18.7244 44.8381 17.9916 44.6275C17.5887 44.5056 17.2244 44.3035 16.928 44.0375C16.6317 43.7715 16.4116 43.449 16.2854 43.0959C16.0039 42.3561 15.8632 41.1591 15.8632 39.505V9.34733C15.8632 6.42697 16.0664 4.61418 16.4727 3.90896C16.7175 3.52031 17.0254 3.16408 17.387 2.85114C17.8278 2.49425 18.3457 2.21635 18.9109 2.03344C19.7072 1.77276 20.5366 1.59555 21.3816 1.50561C22.6242 1.36908 23.8762 1.30692 25.1288 1.31957V0H0V1.31957H2.12342C4.2002 1.31957 5.7657 1.84812 6.81992 2.90522C7.59267 3.67966 7.97905 5.54581 7.97905 8.50367V39.505C7.97905 42.2162 7.69427 43.9591 7.12469 44.7335C6.06715 46.0315 4.40172 46.6804 2.12841 46.6804H0V48H42.938L47.6845 34.9557L46.343 34.7394C45.7227 36.0658 45.0128 37.3595 44.217 38.6137Z" fill="#0466C8"/>
<path d="M17.6119 5.28694H19.1108C20.6096 5.28694 21.7513 5.66694 22.5357 6.42696C23.062 6.95912 23.3251 8.30248 23.3251 10.4571V32.773C23.3251 34.7242 23.1203 35.9789 22.7106 36.537C21.9761 37.4802 20.7762 37.951 19.1108 37.9496H17.6119V38.9014H34.6941V37.9496H33.1578C31.6589 37.9496 30.5314 37.5826 29.7753 36.8485C29.2207 36.3394 28.9426 34.9831 28.9409 32.7795V22.7399C31.1493 23.1599 33.4003 23.3888 35.6609 23.4235C37.4366 23.4494 39.2042 23.2116 40.887 22.7204C42.3133 22.3045 43.6272 21.6421 44.7492 20.7735C45.801 19.9389 46.626 18.9127 47.1649 17.7688C47.7333 16.5492 48.0169 15.2441 47.9992 13.9291C48.0087 12.9377 47.8158 11.9528 47.4297 11.0195C47.0589 10.1319 46.5359 9.2976 45.8783 8.54477C45.2219 7.79641 44.4367 7.13979 43.55 6.59786C42.6661 6.05734 41.698 5.62833 40.6747 5.32371C38.5663 4.66609 35.7559 4.33656 32.2435 4.33511H17.6119V5.28694ZM28.9409 6.8834C30.2071 6.61427 31.5024 6.46128 32.8056 6.42696C33.9472 6.41736 35.0803 6.59802 36.1431 6.95912C37.1547 7.30644 38.0681 7.8384 38.8211 8.51881C39.6107 9.24155 40.2233 10.0951 40.6222 11.0282C41.0807 12.1112 41.3043 13.2582 41.2817 14.4115C41.2933 15.4231 41.0918 16.4281 40.6872 17.3773C40.3264 18.2413 39.7749 19.0363 39.0634 19.7179C38.3873 20.353 37.5743 20.8674 36.6702 21.2321C35.7635 21.6 34.7736 21.7884 33.7723 21.7838C33.0819 21.7769 32.3927 21.7321 31.7089 21.6496C30.9178 21.5617 29.9951 21.4283 28.9409 21.2494V6.8834Z" fill="#0466C8"/>
</svg>
